<svg xmlns="http://www.w3.org/2000/svg" width="14" height="17" viewBox="0 0 14 17">
  <metadata><?xpacket begin="﻿" id="W5M0MpCehiHzreSzNTczkc9d"?>
<x:xmpmeta xmlns:x="adobe:ns:meta/" x:xmptk="Adobe XMP Core 5.6-c142 79.160924, 2017/07/13-01:06:39        ">
   <rdf:RDF xmlns:rdf="http://www.w3.org/1999/02/22-rdf-syntax-ns#">
      <rdf:Description rdf:about=""/>
   </rdf:RDF>
</x:xmpmeta>
                                                                                                    
                                                                                                    
                                                                                                    
                                                                                                    
                                                                                                    
                                                                                                    
                                                                                                    
                                                                                                    
                                                                                                    
                                                                                                    
                                                                                                    
                                                                                                    
                                                                                                    
                                                                                                    
                                                                                                    
                                                                                                    
                                                                                                    
                                                                                                    
                                                                                                    
                                                                                                    
                           
<?xpacket end="w"?></metadata>
<defs>
    <style>
      .cls-1 {
        fill: #26272d;
        fill-rule: evenodd;
        opacity: 0.3;
      }
    </style>
  </defs>
  <path id="Pinterest_Icon" data-name="Pinterest Icon" class="cls-1" d="M861.74,3165.25c-0.472,2.34-1.05,4.58-2.759,5.76-0.528-3.54.775-6.2,1.38-9.03-1.031-1.64.124-4.94,2.3-4.13,2.676,1.01-2.318,6.11,1.035,6.74,3.5,0.67,4.929-5.74,2.759-7.82-3.136-3.01-9.13-.07-8.393,4.24,0.18,1.05,1.33,1.37.46,2.82-2.007-.42-2.606-1.91-2.529-3.91,0.124-3.27,3.1-5.55,6.093-5.87,3.78-.4,7.328,1.31,7.818,4.67,0.551,3.8-1.706,7.91-5.749,7.61A5.041,5.041,0,0,1,861.74,3165.25Z" transform="translate(-856 -3154)"/>
</svg>
